<?xml version="1.0" encoding="UTF-8"?>
<svg width="800" height="600" viewBox="0 0 800 600" fill="none" xmlns="http://www.w3.org/2000/svg">
    <!-- Background -->
    <rect width="800" height="600" fill="#F9FAFB"/>
    
    <!-- Header -->
    <rect x="20" y="20" width="760" height="80" rx="8" fill="white" stroke="#E5E7EB" stroke-width="2"/>
    <rect x="50" y="50" width="200" height="20" rx="4" fill="#E5E7EB"/>
    <rect x="600" y="50" width="150" height="40" rx="8" fill="#4F46E5"/>
    
    <!-- Sidebar -->
    <rect x="20" y="120" width="200" height="460" rx="8" fill="white" stroke="#E5E7EB" stroke-width="2"/>
    <circle cx="50" cy="160" r="20" fill="#E5E7EB"/>
    <rect x="80" y="155" width="100" height="10" rx="2" fill="#E5E7EB"/>
    <rect x="80" y="170" width="70" height="8" rx="2" fill="#E5E7EB"/>
    
    <!-- Main Content -->
    <rect x="240" y="120" width="540" height="220" rx="8" fill="white" stroke="#E5E7EB" stroke-width="2"/>
    <rect x="260" y="150" width="500" height="20" rx="4" fill="#E5E7EB"/>
    <rect x="260" y="190" width="240" height="120" rx="4" fill="#F3F4F6"/>
    <rect x="520" y="190" width="240" height="120" rx="4" fill="#F3F4F6"/>
    
    <!-- Bottom Section -->
    <rect x="240" y="360" width="540" height="220" rx="8" fill="white" stroke="#E5E7EB" stroke-width="2"/>
    <rect x="260" y="390" width="500" height="20" rx="4" fill="#E5E7EB"/>
    <rect x="260" y="430" width="500" height="30" rx="4" fill="#F3F4F6"/>
    <rect x="260" y="480" width="500" height="30" rx="4" fill="#F3F4F6"/>
    <rect x="260" y="530" width="500" height="30" rx="4" fill="#F3F4F6"/>
    
    <!-- Footer -->
    <rect x="20" y="560" width="760" height="20" rx="4" fill="#F3F4F6"/>
</svg>
